<?xml version="1.0" standalone="no"?><!DOCTYPE svg PUBLIC "-//W3C//DTD SVG 1.1//EN" "http://www.w3.org/Graphics/SVG/1.1/DTD/svg11.dtd"><svg t="1585287987222" class="icon" viewBox="0 0 1024 1024" version="1.1" xmlns="http://www.w3.org/2000/svg" p-id="8529" xmlns:xlink="http://www.w3.org/1999/xlink" width="200" height="200"><defs><style type="text/css"></style></defs><path d="M267.07 1002.67c-12.59 0-24.89-5.58-33.17-15.81L52.18 762.46c-13.75-16.97-12.46-41.58 2.99-57.02l183.29-183.29c14.93-14.94 38.54-16.71 55.53-4.15l137.95 101.97a1056.387 1056.387 0 0 0 188.03-188.03L518 293.99c-12.55-16.99-10.79-40.6 4.15-55.53L705.44 55.17c15.43-15.45 40.04-16.76 57.02-2.99L986.1 233.3c4.05 3.14 7.45 6.93 10.08 11.16a42.68 42.68 0 0 1 4.15 8.68c0.01 0.01 0.01 0.04 0.01 0.03a42.52 42.52 0 0 1-0.81 29.96c-0.02 0.02-0.02 0.03-0.02 0.05-0.02 0.01-0.02 0.02-0.02 0.05-0.01 0.01-0.01 0.02-0.02 0.04 0 0.01 0 0.02-0.03 0.07-22.01 53.32-47.65 105.36-76.18 154.67-57.73 100.46-128.54 192.96-210.41 274.83-81.89 81.88-174.39 152.69-274.95 210.48-49.2 28.47-101.24 54.1-154.56 76.11a42.578 42.578 0 0 1-16.27 3.24zM142.67 738.6l137.26 169.48c39.65-17.58 78.32-37.26 115.35-58.68 94.16-54.11 180.66-120.34 257.23-196.91 76.55-76.56 142.78-163.06 196.83-257.11v-0.01l0.06-0.09c0.25-0.44 0.5-0.86 0.74-1.3 21.17-36.68 40.57-74.91 57.94-114.05L738.6 142.67 608.47 272.81l99.03 133.98c11.08 14.99 11.15 35.45 0.16 50.5-70.06 96.07-154.3 180.31-250.37 250.37-15.06 11-35.5 10.93-50.5-0.16l-133.98-99.03L142.67 738.6z"  p-id="8530"></path></svg>
