<?xml version="1.0" standalone="no"?><!DOCTYPE svg PUBLIC "-//W3C//DTD SVG 1.1//EN" "http://www.w3.org/Graphics/SVG/1.1/DTD/svg11.dtd"><svg t="1585287822762" class="icon" viewBox="0 0 1024 1024" version="1.1" xmlns="http://www.w3.org/2000/svg" p-id="8295" xmlns:xlink="http://www.w3.org/1999/xlink" width="200" height="200"><defs><style type="text/css"></style></defs><path d="M85.333333 874.666667V448c0-23.466667 19.2-42.666667 42.666667-42.666667h213.333333V149.333333c0-23.466667 19.2-42.666667 42.666667-42.666666h256c23.466667 0 42.666667 19.2 42.666667 42.666666v128h213.333333c23.466667 0 42.666667 19.2 42.666667 42.666667v554.666667c0 23.466667-19.2 42.666667-42.666667 42.666666H128c-23.466667 0-42.666667-19.2-42.666667-42.666666z m85.333334-42.666667h170.666666V490.666667H170.666667v341.333333z m256-384v384h170.666666V192h-170.666666v256z m256 384h170.666666V362.666667h-170.666666v469.333333z"  p-id="8296"></path></svg>
