<?xml version="1.0" standalone="no"?><!DOCTYPE svg PUBLIC "-//W3C//DTD SVG 1.1//EN" "http://www.w3.org/Graphics/SVG/1.1/DTD/svg11.dtd"><svg t="1585288384532" class="icon" viewBox="0 0 1024 1024" version="1.1" xmlns="http://www.w3.org/2000/svg" p-id="9256" xmlns:xlink="http://www.w3.org/1999/xlink" width="200" height="200"><defs><style type="text/css"></style></defs><path d="M108.8 469.333333C128 279.466667 279.466667 128 469.333333 108.8V64c0-23.466667 19.2-42.666667 42.666667-42.666667s42.666667 19.2 42.666667 42.666667v44.8c189.866667 19.2 341.333333 170.666667 360.533333 360.533333H960c23.466667 0 42.666667 19.2 42.666667 42.666667s-19.2 42.666667-42.666667 42.666667h-44.8c-19.2 189.866667-170.666667 341.333333-360.533333 360.533333V960c0 23.466667-19.2 42.666667-42.666667 42.666667s-42.666667-19.2-42.666667-42.666667v-44.8C279.466667 896 128 744.533333 108.8 554.666667H64c-23.466667 0-42.666667-19.2-42.666667-42.666667s19.2-42.666667 42.666667-42.666667h44.8zM469.333333 194.133333C326.4 213.333333 215.466667 326.4 196.266667 469.333333H234.666667c23.466667 0 42.666667 19.2 42.666666 42.666667s-19.2 42.666667-42.666666 42.666667H196.266667c19.2 142.933333 132.266667 256 275.2 273.066666V789.333333c0-23.466667 19.2-42.666667 42.666666-42.666666s42.666667 19.2 42.666667 42.666666v38.4C697.6 810.666667 810.666667 697.6 829.866667 554.666667H789.333333c-23.466667 0-42.666667-19.2-42.666666-42.666667s19.2-42.666667 42.666666-42.666667h40.533334C810.666667 326.4 697.6 213.333333 554.666667 194.133333V234.666667c0 23.466667-19.2 42.666667-42.666667 42.666666s-42.666667-19.2-42.666667-42.666666V194.133333z"  p-id="9257"></path></svg>
