<?xml version="1.0" standalone="no"?><!DOCTYPE svg PUBLIC "-//W3C//DTD SVG 1.1//EN" "http://www.w3.org/Graphics/SVG/1.1/DTD/svg11.dtd"><svg t="1585287748430" class="icon" viewBox="0 0 1024 1024" version="1.1" xmlns="http://www.w3.org/2000/svg" p-id="8059" xmlns:xlink="http://www.w3.org/1999/xlink" width="200" height="200"><defs><style type="text/css"></style></defs><path d="M936.533333 260.266667c14.933333 6.4 23.466667 21.333333 23.466667 38.4 0 14.933333-8.533333 29.866667-23.466667 38.4l-405.333333 213.333333c-6.4 2.133333-12.8 4.266667-19.2 4.266667-6.4 0-12.8-2.133333-19.2-4.266667l-405.333333-213.333333C72.533333 328.533333 64 313.6 64 298.666667s8.533333-29.866667 23.466667-38.4l405.333333-213.333334c12.8-6.4 27.733333-6.4 40.533333 0l403.2 213.333334zM512 462.933333L825.6 298.666667 512 134.4 198.4 298.666667 512 462.933333z"  p-id="8060"></path><path d="M955.733333 492.8c-10.666667-21.333333-36.266667-29.866667-57.6-17.066667L512 676.266667 125.866667 473.6c-21.333333-10.666667-46.933333-2.133333-57.6 17.066667-10.666667 21.333333-2.133333 46.933333 17.066666 57.6l405.333334 213.333333c6.4 4.266667 12.8 4.266667 19.2 4.266667 6.4 0 12.8-2.133333 19.2-4.266667l405.333333-213.333333c23.466667-8.533333 32-36.266667 21.333333-55.466667"  p-id="8061"></path><path d="M898.133333 686.933333L512 889.6 125.866667 686.933333c-21.333333-10.666667-46.933333-2.133333-57.6 17.066667s-2.133333 46.933333 17.066666 57.6l405.333334 213.333333c6.4 4.266667 12.8 4.266667 19.2 4.266667 6.4 0 12.8-2.133333 19.2-4.266667l405.333333-213.333333c21.333333-10.666667 29.866667-36.266667 17.066667-57.6-6.4-19.2-32-27.733333-53.333334-17.066667"  p-id="8062"></path></svg>
