<?xml version="1.0" standalone="no"?><!DOCTYPE svg PUBLIC "-//W3C//DTD SVG 1.1//EN" "http://www.w3.org/Graphics/SVG/1.1/DTD/svg11.dtd"><svg t="1584944621498" class="icon" viewBox="0 0 1024 1024" version="1.1" xmlns="http://www.w3.org/2000/svg" p-id="6962" xmlns:xlink="http://www.w3.org/1999/xlink" width="200" height="200"><defs><style type="text/css"></style></defs><path d="M512 832c82.33 0 149.33-67 149.33-149.33s-67-149.33-149.33-149.33-149.33 67-149.33 149.33S429.67 832 512 832z m0-213.33c35.29 0 64 28.71 64 64s-28.71 64-64 64-64-28.71-64-64 28.71-64 64-64z" fill="#b4bcc8" p-id="6963"></path><path d="M874.67 384h-512V277.33C362.67 195 429.67 128 512 128s149.33 67 149.33 149.33c0 23.56 19.1 42.67 42.67 42.67s42.67-19.1 42.67-42.67c0-129.4-105.27-234.67-234.67-234.67S277.33 147.94 277.33 277.33V384h-128c-23.56 0-42.67 19.1-42.67 42.67v512c0 23.56 19.1 42.67 42.67 42.67h725.33c23.56 0 42.67-19.1 42.67-42.67v-512c0-23.57-19.1-42.67-42.66-42.67zM832 896H192V469.33h640V896z" fill="#b4bcc8" p-id="6964"></path></svg>