<?xml version="1.0" standalone="no"?><!DOCTYPE svg PUBLIC "-//W3C//DTD SVG 1.1//EN" "http://www.w3.org/Graphics/SVG/1.1/DTD/svg11.dtd"><svg t="1585288790758" class="icon" viewBox="0 0 1024 1024" version="1.1" xmlns="http://www.w3.org/2000/svg" p-id="9959" xmlns:xlink="http://www.w3.org/1999/xlink" width="200" height="200"><defs><style type="text/css"></style></defs><path d="M896 64c23.466667 0 42.666667 19.2 42.666667 42.666667v541.866666c0 4.266667-2.133333 6.4-4.266667 10.666667 0 0 0 2.133333-2.133333 2.133333-2.133333 4.266667-4.266667 6.4-6.4 8.533334l-277.333334 277.333333-6.4 6.4c-2.133333 0-2.133333 2.133333-4.266666 2.133333s-2.133333 2.133333-4.266667 2.133334-2.133333 0-4.266667 2.133333H213.333333c-23.466667 0-42.666667-19.2-42.666666-42.666667v-128H128c-23.466667 0-42.666667-19.2-42.666667-42.666666s19.2-42.666667 42.666667-42.666667h42.666667v-149.333333H128c-23.466667 0-42.666667-19.2-42.666667-42.666667s19.2-42.666667 42.666667-42.666667h42.666667v-149.333333H128c-23.466667 0-42.666667-19.2-42.666667-42.666667s19.2-42.666667 42.666667-42.666666h42.666667V106.666667c0-23.466667 19.2-42.666667 42.666666-42.666667h682.666667z m-42.666667 533.333333V149.333333H256v85.333334h42.666667c23.466667 0 42.666667 19.2 42.666666 42.666666s-19.2 42.666667-42.666666 42.666667h-42.666667v149.333333h42.666667c23.466667 0 42.666667 19.2 42.666666 42.666667s-19.2 42.666667-42.666666 42.666667h-42.666667v149.333333h42.666667c23.466667 0 42.666667 19.2 42.666666 42.666667s-19.2 42.666667-42.666666 42.666666h-42.666667v85.333334h320V640c0-23.466667 19.2-42.666667 42.666667-42.666667h234.666666z m-125.866666 151.466667l66.133333-66.133333H661.333333v132.266666l66.133334-66.133333z"  p-id="9960"></path></svg>
