<?xml version="1.0" standalone="no"?><!DOCTYPE svg PUBLIC "-//W3C//DTD SVG 1.1//EN" "http://www.w3.org/Graphics/SVG/1.1/DTD/svg11.dtd"><svg t="1588229387498" class="icon" viewBox="0 0 1024 1024" version="1.1" xmlns="http://www.w3.org/2000/svg" p-id="11527" xmlns:xlink="http://www.w3.org/1999/xlink" width="200" height="200"><defs><style type="text/css"></style></defs><path d="M1010.24 823.488c0 68.768-55.744 124.512-124.512 124.512l-747.072 0c-68.768 0-124.512-55.744-124.512-124.512l0-622.56c0-68.768 55.744-124.512 124.512-124.512l705.568 0c17.184 0 31.136 13.952 31.136 31.136s-13.952 31.136-31.136 31.136l0 0-684.8 0c-45.856 0-83.008 57.92-83.008 103.776l0 560.32c0 45.856 37.152 83.008 83.008 83.008l705.568 0c45.856 0 83.008-37.184 83.008-83.008l0-373.536 0.256 0c-0.032-0.448-0.256-0.832-0.256-1.312 0-17.184 13.952-31.136 31.136-31.136s31.136 13.952 31.136 31.136c0 0.48-0.256 0.864-0.256 1.312l0.256 0 0 394.304zM918.336 361.376l-369.984 326.208c-1.856 1.408-4.128 2.208-6.464 2.304l-6.112 0.256-89.408 8.768c-3.168-0.768-5.664-2.688-7.584-5.056-0.352-0.032-0.704-0.032-1.056-0.096-2.624-0.64-5.024-2.176-6.688-4.48-2.304-3.168-2.944-7.264-1.696-10.976l33.024-96.8c0.768-2.24 2.176-4.16 4.064-5.6l370.368-326.464c2.464-1.888 5.6-2.688 8.672-2.176 3.136 0.416 5.856 2.176 7.712 4.704l67.552 92.896c3.84 5.28 2.752 12.672-2.4 16.544zM970.272 317.248l-81.952-111.648 20.928-15.744c11.424-8.608 25.856-11.616 39.552-8.288 10.592 2.56 19.968 8.832 26.4 17.632l26.112 35.616c15.392 20.96 10.816 50.912-10.176 66.72l-20.896 15.744z" p-id="11528"></path></svg>