<?xml version="1.0" standalone="no"?><!DOCTYPE svg PUBLIC "-//W3C//DTD SVG 1.1//EN" "http://www.w3.org/Graphics/SVG/1.1/DTD/svg11.dtd"><svg t="1584944455741" class="icon" viewBox="0 0 1024 1024" version="1.1" xmlns="http://www.w3.org/2000/svg" p-id="6494" xmlns:xlink="http://www.w3.org/1999/xlink" width="200" height="200"><defs><style type="text/css"></style></defs><path d="M512 981.333333c-23.466667 0-42.666667-19.2-42.666667-42.666666V484.266667c-61.866667-19.2-106.666667-74.666667-106.666666-142.933334s44.8-123.733333 106.666666-142.933333V85.333333c0-23.466667 19.2-42.666667 42.666667-42.666666s42.666667 19.2 42.666667 42.666666v113.066667c61.866667 19.2 106.666667 74.666667 106.666666 142.933333s-44.8 123.733333-106.666666 142.933334V938.666667c0 23.466667-19.2 42.666667-42.666667 42.666666z m-64-640c0 36.266667 27.733333 64 64 64s64-27.733333 64-64-27.733333-64-64-64-64 27.733333-64 64zM810.666667 981.333333c-23.466667 0-42.666667-19.2-42.666667-42.666666v-113.066667c-61.866667-19.2-106.666667-74.666667-106.666667-142.933333s44.8-123.733333 106.666667-142.933334V85.333333c0-23.466667 19.2-42.666667 42.666667-42.666666s42.666667 19.2 42.666666 42.666666v454.4c61.866667 19.2 106.666667 74.666667 106.666667 142.933334s-44.8 123.733333-106.666667 142.933333V938.666667c0 23.466667-19.2 42.666667-42.666666 42.666666z m-64-298.666666c0 36.266667 27.733333 64 64 64s64-27.733333 64-64-27.733333-64-64-64-64 27.733333-64 64zM213.333333 981.333333c-23.466667 0-42.666667-19.2-42.666666-42.666666v-113.066667c-61.866667-19.2-106.666667-74.666667-106.666667-142.933333s44.8-123.733333 106.666667-142.933334V85.333333c0-23.466667 19.2-42.666667 42.666666-42.666666s42.666667 19.2 42.666667 42.666666v454.4c61.866667 19.2 106.666667 74.666667 106.666667 142.933334s-44.8 123.733333-106.666667 142.933333V938.666667c0 23.466667-19.2 42.666667-42.666667 42.666666zM149.333333 682.666667c0 36.266667 27.733333 64 64 64s64-27.733333 64-64-27.733333-64-64-64-64 27.733333-64 64z"  p-id="6495"></path></svg>
