<?xml version="1.0" standalone="no"?><!DOCTYPE svg PUBLIC "-//W3C//DTD SVG 1.1//EN" "http://www.w3.org/Graphics/SVG/1.1/DTD/svg11.dtd"><svg t="1585288262890" class="icon" viewBox="0 0 1024 1024" version="1.1" xmlns="http://www.w3.org/2000/svg" p-id="9021" xmlns:xlink="http://www.w3.org/1999/xlink" width="200" height="200"><defs><style type="text/css"></style></defs><path d="M938.666667 128c23.466667 0 42.666667 19.2 42.666666 42.666667v682.666666c0 23.466667-19.2 42.666667-42.666666 42.666667H85.333333c-23.466667 0-42.666667-19.2-42.666666-42.666667V170.666667c0-23.466667 19.2-42.666667 42.666666-42.666667h853.333334zM128 810.666667h768V213.333333H128v597.333334z"  p-id="9022"></path><path d="M234.666667 554.666667h128c17.066667 0 29.866667-8.533333 38.4-23.466667l40.533333-83.2 93.866667 249.6c6.4 14.933333 21.333333 27.733333 38.4 27.733333h2.133333c17.066667 0 29.866667-8.533333 38.4-23.466666l72.533333-147.2H789.333333c23.466667 0 42.666667-19.2 42.666667-42.666667s-19.2-42.666667-42.666667-42.666667h-128c-17.066667 0-29.866667 8.533333-38.4 23.466667L582.4 576l-93.866667-249.6c-6.4-14.933333-21.333333-27.733333-38.4-27.733333s-32 8.533333-40.533333 23.466666L337.066667 469.333333H234.666667c-23.466667 0-42.666667 19.2-42.666667 42.666667s19.2 42.666667 42.666667 42.666667"  p-id="9023"></path></svg>
