<?xml version="1.0" standalone="no"?><!DOCTYPE svg PUBLIC "-//W3C//DTD SVG 1.1//EN" "http://www.w3.org/Graphics/SVG/1.1/DTD/svg11.dtd"><svg t="1585288103862" class="icon" viewBox="0 0 1024 1024" version="1.1" xmlns="http://www.w3.org/2000/svg" p-id="8787" xmlns:xlink="http://www.w3.org/1999/xlink" width="200" height="200"><defs><style type="text/css"></style></defs><path d="M388.266667 746.666667c14.933333-6.4 29.866667-14.933333 40.533333-29.866667 23.466667-29.866667 23.466667-74.666667 0-104.533333-14.933333-19.2-38.4-32-64-34.133334-23.466667-2.133333-49.066667 6.4-66.133333 25.6-8.533333 8.533333-14.933333 19.2-19.2 32-8.533333 21.333333-25.6 36.266667-46.933334 42.666667-21.333333 4.266667-42.666667-2.133333-59.733333-17.066667l-138.666667-138.666666c-17.066667-17.066667-17.066667-42.666667 0-59.733334l426.666667-426.666666c17.066667-17.066667 42.666667-17.066667 59.733333 0l117.333334 117.333333c6.4-12.8 17.066667-23.466667 27.733333-34.133333 34.133333-34.133333 83.2-53.333333 132.266667-49.066667 49.066667 2.133333 93.866667 27.733333 125.866666 66.133333 46.933333 59.733333 46.933333 147.2 2.133334 206.933334-14.933333 19.2-32 34.133333-51.2 44.8l117.333333 117.333333c17.066667 17.066667 17.066667 42.666667 0 59.733333l-426.666667 426.666667c-10.666667 6.4-21.333333 10.666667-32 10.666667s-21.333333-4.266667-29.866666-12.8l-138.666667-138.666667c-14.933333-14.933333-21.333333-38.4-17.066667-59.733333 4.266667-21.333333 21.333333-38.4 40.533334-44.8z m-17.066667-253.866667c49.066667 2.133333 96 27.733333 125.866667 66.133333 46.933333 59.733333 46.933333 147.2 2.133333 206.933334-14.933333 19.2-32 34.133333-51.2 44.8l87.466667 87.466666L900.266667 533.333333l-108.8-108.8c-14.933333-14.933333-21.333333-38.4-17.066667-59.733333 4.266667-21.333333 21.333333-38.4 42.666667-46.933333 14.933333-6.4 29.866667-14.933333 40.533333-29.866667 23.466667-29.866667 23.466667-74.666667 0-104.533333-14.933333-19.2-38.4-32-64-34.133334-25.6 0-51.2 8.533333-68.266667 27.733334-8.533333 8.533333-14.933333 19.2-19.2 32-8.533333 21.333333-25.6 36.266667-46.933333 42.666666-21.333333 4.266667-42.666667-2.133333-59.733333-17.066666L490.666667 123.733333 123.733333 490.666667l87.466667 87.466666c6.4-12.8 17.066667-23.466667 27.733333-34.133333 34.133333-36.266667 83.2-53.333333 132.266667-51.2z"  p-id="8788"></path></svg>
