<?xml version="1.0" standalone="no"?><!DOCTYPE svg PUBLIC "-//W3C//DTD SVG 1.1//EN" "http://www.w3.org/Graphics/SVG/1.1/DTD/svg11.dtd"><svg t="1588229024746" class="icon" viewBox="0 0 1024 1024" version="1.1" xmlns="http://www.w3.org/2000/svg" p-id="62045" xmlns:xlink="http://www.w3.org/1999/xlink" width="200" height="200"><defs><style type="text/css"></style></defs><path d="M534.8515625 854.7734375h-45.703125c-11.13310547 0-18.45703125 2.05048828-21.97265625 6.15234375-11.13310547 11.13310547-26.3671875 19.48271484-45.703125 25.04882813s-41.60126953 8.34960938-66.796875 8.34960937c-32.22685547 0-62.40234375-5.56611328-90.52734375-16.69921875-3.515625-1.7578125-6.88447266-3.66240234-10.10742188-5.71289063s-6.00556641-3.95507813-8.34960937-5.71289062-4.54130859-3.80830078-6.59179688-6.15234375-3.66240234-4.54130859-4.83398437-6.59179688-2.05048828-4.39453125-2.63671875-7.03124999-0.87890625-5.42021484-0.87890625-8.34960938c0-8.20283203 3.07617188-15.38085938 9.22851563-21.53320313S256.23828125 804.38310547 270.30078125 798.5234375c8.20283203-2.34404297 13.91572266-5.2734375 17.13867188-8.7890625s4.83398438-7.91015625 4.83398437-13.18359375c0-15.23408203-1.7578125-24.609375-5.2734375-28.125-2.92939453-3.515625-5.85966797-7.91015625-8.7890625-13.18359375l-10.546875-14.0625c-2.92939453-5.2734375-5.85966797-9.37529297-8.7890625-12.3046875-5.85966797-11.13310547-15.23408203-16.69921875-28.125-16.69921875-3.515625 0-6.59179688 0.43945313-9.22851563 1.31835938s-6.00556641 2.48994141-10.10742187 4.83398437-7.03125 4.10185547-8.7890625 5.2734375c-11.13310547 10.546875-18.74970703 16.11298828-22.8515625 16.69921875-6.44501953 0-9.96064453-13.47626953-10.546875-40.4296875v-4.39453125c0-18.74970703 3.515625-50.68388672 10.546875-95.80078125 11.71845703-33.98466797 30.46904297-64.16015625 56.25-90.52734375 7.61748047-7.03125 11.42578125-16.40654297 11.42578125-28.125v-10.546875c0-16.99189453 5.56611328-33.98466797 16.69921875-50.9765625 2.92939453-2.34404297 4.68720703-4.83398438 5.2734375-7.47070313s0.87890625-5.71289063 0.87890625-9.22851562v-6.15234375c0-13.47626953 0.87890625-26.51396484 2.63671875-39.11132813s4.54130859-24.75615234 8.34960938-36.47460937 8.64228516-23.14423828 14.50195312-34.27734375 12.74414063-22.11943359 20.65429688-32.95898438 16.84599609-21.24052734 26.80664062-31.20117187c43.35908203-48.63251953 99.60908203-72.94921875 168.75-72.94921875 11.13310547 0 21.97265625 0.58623047 32.51953125 1.7578125s20.94697266 3.07617188 31.20117188 5.71289063 20.21484375 6.00556641 29.88281249 10.10742187 19.04326172 8.7890625 28.12500001 14.0625 18.01757813 11.42578125 26.80664062 18.45703125 17.28544922 14.64873047 25.48828125 22.8515625c15.8203125 17.578125 29.00390625 35.15625 39.55078125 52.734375s18.89648438 36.76728516 25.04882813 57.56835938S759.8515625 354.96845703 759.8515625 376.6484375v6.15234375c0 7.61748047 1.7578125 13.18359375 5.2734375 16.69921875 11.13310547 16.99189453 16.69921875 33.98466797 16.69921875 50.9765625v10.546875c0 15.23408203 3.80830078 24.609375 11.42578125 28.125 26.3671875 26.3671875 45.11689453 56.54267578 56.25 90.52734375 12.3046875 38.08564453 16.11298828 70.01982422 11.42578125 95.80078125 0 13.47626953-1.31835938 23.58369141-3.95507813 30.32226563s-6.88447266 11.57255859-12.74414062 14.50195312c-4.10185547 0-11.71845703-5.56611328-22.8515625-16.69921875-7.61748047-7.61748047-16.99189453-11.42578125-28.125-11.42578125h-10.546875c-1.17158203 0-2.34404297 0.29267578-3.515625 0.87890625s-2.48994141 1.02568359-3.95507813 1.31835938-2.78349609 1.02568359-3.95507812 2.19726562l-3.515625 1.7578125-3.07617188 3.07617188-2.63671875 3.515625c-1.7578125 2.34404297-2.48994141 3.66240234-2.19726562 3.95507812-4.10185547 11.13310547-13.47626953 24.31669922-28.125 39.55078125-8.7890625 8.7890625-10.83955078 18.16435547-6.15234375 28.125 0 5.2734375 4.68720703 11.71845703 14.0625 19.3359375l2.63671875 2.63671875c25.78095703 11.71845703 38.96455078 24.90205078 39.55078125 39.55078125 0 8.20283203-2.63671875 15.38085938-7.91015625 21.53320313s-13.76982422 12.15791016-25.48828125 18.01757812c-11.13310547 5.2734375-24.609375 9.37529297-40.4296875 12.3046875s-32.51953125 4.39453125-50.09765625 4.39453125c-46.87470703 0-84.375-11.13310547-112.5-33.3984375 4.10185547 0 3.22294922-1.17158203-2.63671875-3.515625l-7.91015625-2.63671875z m129.19921875 107.2265625c56.25 0 101.07421875-11.13310547 134.47265625-33.3984375 18.16435547-12.3046875 32.08007813-25.78095703 41.74804688-40.4296875s14.50195313-31.34794922 14.50195312-50.09765625c0-20.50751953-5.56611328-39.25810547-16.69921875-56.25h7.91015625c1.7578125 0 4.24775391-0.43945313 7.47070313-1.31835938s5.71289063-2.19726563 7.47070312-3.95507812c31.640625-10.546875 50.39033203-38.671875 56.25-84.375 5.2734375-39.25810547-0.29267578-84.375-16.69921875-135.3515625-2.34404297-7.61748047-5.12666016-15.23408203-8.34960938-22.8515625s-6.73857422-14.94140625-10.54687499-21.97265625-8.05693359-14.0625-12.74414063-21.09375-9.52119141-13.76982422-14.50195313-20.21484375-10.40009766-13.18359375-16.25976562-20.21484375c0-24.609375-5.56611328-50.9765625-16.69921875-79.1015625 0-28.125-3.22294922-54.93164063-9.66796875-80.41992188s-16.25976563-49.95087891-29.44335938-73.38867187-30.02958984-45.41044922-50.53710937-65.91796875c-8.7890625-8.7890625-17.87080078-16.84599609-27.24609375-24.16992188s-18.89648438-14.0625-28.56445312-20.21484374-19.62861328-11.71845703-29.8828125-16.69921876-20.80107422-9.22851563-31.640625-12.74414062-21.82587891-6.44501953-32.95898438-8.7890625-22.41210938-4.10185547-33.83789062-5.2734375S524.3046875 62 512 62c-28.125 0-54.93164063 3.22294922-80.41992188 9.66796875S381.62919922 87.92773437 358.19140625 101.11132812s-45.41044922 30.02958984-65.91796875 50.53710938c-59.765625 66.796875-89.6484375 140.03876953-89.6484375 219.7265625-11.13310547 22.26533203-16.69921875 48.63251953-16.69921875 79.1015625v5.2734375c-8.20283203 6.44501953-15.67353516 13.91572266-22.41210938 22.41210938s-12.59736328 17.28544922-17.57812499 26.36718749-9.08173828 17.72490234-12.30468751 25.92773438S127.0390625 547.44892578 123.5234375 556.82421875c-16.40654297 50.9765625-21.97265625 96.09345703-16.69921875 135.3515625 2.92939453 21.67998047 9.37529297 39.69755859 19.3359375 54.05273438s22.26533203 24.46259766 36.9140625 30.32226562c1.7578125 0 5.56611328 0.87890625 11.42578125 2.63671875s9.66796875 2.63671875 11.42578125 2.63671875c-11.13310547 16.99189453-16.69921875 35.74248047-16.69921875 56.25 0 38.671875 18.74970703 68.84736328 56.25 90.52734375 8.20283203 5.2734375 17.13867188 10.10742188 26.80664063 14.50195313s20.06806641 7.91015625 31.20117187 10.54687499 22.55888672 4.68720703 34.27734375 6.15234376c11.71845703 1.46513672 24.02314453 2.19726563 36.9140625 2.19726562 62.10966797 0 108.984375-13.18359375 140.625-39.55078125h28.125c36.9140625 26.3671875 83.78876953 39.55078125 140.625 39.55078125z" p-id="62046"></path></svg>