<?xml version="1.0" standalone="no"?><!DOCTYPE svg PUBLIC "-//W3C//DTD SVG 1.1//EN" "http://www.w3.org/Graphics/SVG/1.1/DTD/svg11.dtd"><svg t="1585288673245" class="icon" viewBox="0 0 1024 1024" version="1.1" xmlns="http://www.w3.org/2000/svg" p-id="9725" xmlns:xlink="http://www.w3.org/1999/xlink" width="200" height="200"><defs><style type="text/css"></style></defs><path d="M21.333333 618.666667V405.333333c0-23.466667 19.2-42.666667 42.666667-42.666666h93.866667c38.4-91.733333 113.066667-166.4 204.8-204.8V64c0-23.466667 19.2-42.666667 42.666666-42.666667h213.333334c23.466667 0 42.666667 19.2 42.666666 42.666667v93.866667c91.733333 38.4 166.4 113.066667 204.8 204.8H960c23.466667 0 42.666667 19.2 42.666667 42.666666v213.333334c0 23.466667-19.2 42.666667-42.666667 42.666666h-93.866667c-38.4 91.733333-113.066667 166.4-204.8 204.8V960c0 23.466667-19.2 42.666667-42.666666 42.666667H405.333333c-23.466667 0-42.666667-19.2-42.666666-42.666667v-93.866667c-91.733333-38.4-166.4-113.066667-204.8-204.8H64c-23.466667 0-42.666667-19.2-42.666667-42.666666z m85.333334-170.666667v128h128v-128H106.666667z m170.666666-85.333333c23.466667 0 42.666667 19.2 42.666667 42.666666v213.333334c0 23.466667-19.2 42.666667-42.666667 42.666666h-23.466666c25.6 44.8 64 83.2 108.8 108.8V746.666667c0-23.466667 19.2-42.666667 42.666666-42.666667h213.333334c23.466667 0 42.666667 19.2 42.666666 42.666667v23.466666c44.8-25.6 83.2-64 108.8-108.8H746.666667c-23.466667 0-42.666667-19.2-42.666667-42.666666V405.333333c0-23.466667 19.2-42.666667 42.666667-42.666666h23.466666c-25.6-44.8-64-83.2-108.8-108.8V277.333333c0 23.466667-19.2 42.666667-42.666666 42.666667H405.333333c-23.466667 0-42.666667-19.2-42.666666-42.666667v-23.466666c-44.8 25.6-83.2 64-108.8 108.8H277.333333z m170.666667-128h128V106.666667h-128v128z m0 682.666666h128v-128h-128v128z m341.333333-469.333333v128h128v-128h-128z"  p-id="9726"></path></svg>
