<?xml version="1.0" standalone="no"?><!DOCTYPE svg PUBLIC "-//W3C//DTD SVG 1.1//EN" "http://www.w3.org/Graphics/SVG/1.1/DTD/svg11.dtd"><svg t="1584944521534" class="icon" viewBox="0 0 1024 1024" version="1.1" xmlns="http://www.w3.org/2000/svg" p-id="6728" xmlns:xlink="http://www.w3.org/1999/xlink" width="200" height="200"><defs><style type="text/css"></style></defs><path d="M194.133333 981.333333c-40.533333 0-78.933333-17.066667-106.666666-44.8-27.733333-27.733333-44.8-66.133333-44.8-106.666666s14.933333-78.933333 44.8-106.666667l307.2-307.2c-25.6-98.133333 0-209.066667 76.8-285.866667C554.666667 49.066667 676.266667 21.333333 787.2 61.866667c12.8 4.266667 23.466667 17.066667 27.733333 29.866666 2.133333 14.933333-2.133333 29.866667-10.666666 38.4l-91.733334 91.733334 19.2 70.4 70.4 19.2 91.733334-91.733334c10.666667-10.666667 25.6-14.933333 38.4-10.666666 14.933333 2.133333 25.6 12.8 29.866666 27.733333 40.533333 108.8 12.8 232.533333-68.266666 315.733333-57.6 57.6-134.4 87.466667-211.2 87.466667-25.6 0-51.2-4.266667-74.666667-10.666667L300.8 936.533333c-27.733333 27.733333-66.133333 44.8-106.666667 44.8z m-46.933333-198.4c-12.8 12.8-19.2 29.866667-19.2 46.933334 0 17.066667 6.4 34.133333 19.2 46.933333 12.8 12.8 29.866667 19.2 46.933333 19.2 17.066667 0 34.133333-6.4 46.933334-19.2l283.733333-283.733333c-19.2-10.666667-36.266667-25.6-51.2-40.533334-17.066667-17.066667-29.866667-34.133333-40.533333-51.2L147.2 782.933333z m384-593.066666C448 273.066667 448 407.466667 531.2 490.666667c83.2 83.2 217.6 83.2 300.8 0 40.533333-40.533333 61.866667-96 61.866667-153.6l-53.333334 53.333333c-10.666667 10.666667-25.6 14.933333-40.533333 10.666667L682.666667 371.2c-14.933333-4.266667-25.6-14.933333-29.866667-29.866667l-32-119.466666c-4.266667-14.933333 0-29.866667 10.666667-40.533334L684.8 128H682.666667c-55.466667 0-110.933333 21.333333-151.466667 61.866667z" fill="#b4bcc8" p-id="6729"></path></svg>